# xmcd
#
# Track frame offsets: 
#        183
#        13240
#        25665
#        37180
#        47913
#        62185
#        73790
#        87225
#        97290
#        112340
#        126418
#        141988
#        157483
#        168398
#
# Disc length: 2472 seconds
#
# Revision: 3
# Processed by: cddbd v1.5.2PL0 Copyright (c) Steve Scherf et al.
# Submitted via: ExactAudioCopyFreeDBPlugin 1.0
#
DISCID=e009a60e
DTITLE=Kenny Rogers - 28 Great Songs CD 1
DYEAR=1993
DGENRE=Country
TTITLE0=Ruby (Don´t Take Your Love To Town)
TTITLE1=Ruben James
TTITLE2=Me And Bobby Mc-Ghee
TTITLE3=Homemade Lies
TTITLE4=It's Raining In My Mind
TTITLE5=Poem For a Little Lady
TTITLE6=A Stranger In My Place
TTITLE7=Where Does Rosie Go
TTITLE8=Tell It All Brother
TTITLE9=Loser
TTITLE10=Tulsa Turnaround
TTITLE11=My Washington Woman
TTITLE12=Always Leaving Always Gone
TTITLE13=Something's Burning
EXTD=
EXTT0=
EXTT1=
EXTT2=
EXTT3=
EXTT4=
EXTT5=
EXTT6=
EXTT7=
EXTT8=
EXTT9=
EXTT10=
EXTT11=
EXTT12=
EXTT13=
PLAYORDER=
